<?xml version="1.0" encoding="iso-8859-1"?>
<!-- Generator: Adobe Illustrator 19.0.0, SVG Export Plug-In . SVG Version: 6.00 Build 0)  -->
<svg version="1.1" id="Capa_1" xmlns="http://www.w3.org/2000/svg" xmlns:xlink="http://www.w3.org/1999/xlink" x="0px" y="0px"
	 viewBox="0 0 511.999 511.999" style="enable-background:new 0 0 511.999 511.999;" xml:space="preserve">
	 	<linearGradient id="linear-gradient">
		<stop offset="0%" stop-color="#6e45d0"/>
		<stop offset="100%" stop-color="#3e7dcf"/>
	</linearGradient>
<path d="M481.993,370.791V166.01c0-19.554-12.541-36.227-29.999-42.419V90.012h15c24.812,0,44.999-20.186,44.999-44.999
	S491.805,0.015,466.993,0.015H345.997c-24.812,0-44.999,20.186-44.999,44.999s20.186,44.999,44.999,44.999h15v30.999h-90.997V15.014
	c0-13.302-16.163-20.05-25.605-10.606L225,23.801L205.608,4.407c-5.857-5.858-15.355-5.858-21.212,0L165.002,23.8L145.61,4.407
	c-9.406-9.407-25.605-2.749-25.605,10.606V121.01H75.006c-24.812,0-44.999,20.186-44.999,44.999V370.79L4.401,396.396
	c-2.813,2.813-4.394,6.628-4.394,10.606v89.997c0,8.284,6.716,15,15,15h481.986c8.284,0,15-6.716,15-15v-89.997
	c0-3.978-1.58-7.793-4.394-10.606L481.993,370.791z M330.997,45.013c0-8.271,6.729-15,15-15h120.996c8.271,0,15,6.729,15,15
	s-6.729,15-15,15H345.997C337.726,60.013,330.997,53.284,330.997,45.013z M390.995,90.012h30.999v30.999h-30.999V90.012z
	 M150.002,51.226l4.394,4.393c5.857,5.858,15.355,5.858,21.212,0l19.393-19.392l19.393,19.392c5.857,5.858,15.355,5.858,21.212,0
	l4.394-4.393v129.783h-89.997V51.226H150.002z M75.005,151.01h44.999v29.999h-15c-8.284,0-15,6.716-15,15s6.716,15,15,15h179.995
	c8.284,0,15-6.716,15-15s-6.716-15-15-15h-15V151.01h166.995l0,0c8.271,0,15,6.729,15,15v195.994l0,0H60.005l0,0V166.01
	C60.005,157.739,66.734,151.01,75.005,151.01z M180.002,392.003h150.996v15c0,8.271-6.729,15-15,15H195.001c-8.271,0-15-6.729-15-15
	L180.002,392.003L180.002,392.003z M481.993,482H30.006v-68.785l21.212-21.212h98.784v15c0,24.812,20.186,44.999,44.999,44.999
	h120.996c24.812,0,44.999-20.186,44.999-44.999v-15h99.784l21.212,21.212L481.993,482L481.993,482z" fill="url(#linear-gradient)"/>
<path d="M105.004,331.005h179.995c8.284,0,15-6.716,15-15v-59.998c0-8.284-6.716-15-15-15H105.004c-8.284,0-15,6.716-15,15v59.998
	C90.004,324.289,96.72,331.005,105.004,331.005z M120.003,271.007h149.996v29.999H120.003L120.003,271.007L120.003,271.007z" fill="url(#linear-gradient)"/>
<circle cx="346" cy="256.002" r="15" fill="url(#linear-gradient)"/>
<circle cx="346" cy="196.004" r="15" fill="url(#linear-gradient)"/>
<circle cx="406.998" cy="256.002" r="15" fill="url(#linear-gradient)"/>
<circle cx="406.998" cy="196.004" r="15" fill="url(#linear-gradient)"/>
<circle cx="406.998" cy="316" r="15" fill="url(#linear-gradient)"/>
<circle cx="346" cy="316" r="15" fill="url(#linear-gradient)"/>
<g>
</g>
<g>
</g>
<g>
</g>
<g>
</g>
<g>
</g>
<g>
</g>
<g>
</g>
<g>
</g>
<g>
</g>
<g>
</g>
<g>
</g>
<g>
</g>
<g>
</g>
<g>
</g>
<g>
</g>
</svg>
