<?xml version="1.0" encoding="iso-8859-1"?>
<!-- Generator: Adobe Illustrator 19.0.0, SVG Export Plug-In . SVG Version: 6.00 Build 0)  -->
<svg xmlns="http://www.w3.org/2000/svg" xmlns:xlink="http://www.w3.org/1999/xlink" version="1.1" id="Capa_1" x="0px" y="0px" viewBox="0 0 512 512" style="enable-background:new 0 0 512 512;" xml:space="preserve" width="512px" height="512px">
	<linearGradient id="linear-gradient">
		<stop offset="0%" stop-color="#6e45d0"/>
		<stop offset="100%" stop-color="#3e7dcf"/>
	</linearGradient>
	<g>
		<g>
			<path d="M497.231,54.154H14.769C6.613,54.154,0,60.767,0,68.923v98.462c0,8.156,6.613,14.769,14.769,14.769h29.538v64    c0,56.545,22.02,109.706,62.003,149.689c39.983,39.983,93.144,62.003,149.689,62.003s109.706-22.02,149.689-62.003    c39.983-39.983,62.003-93.144,62.003-149.689v-64h29.538c8.157,0,14.769-6.613,14.769-14.769V68.923    C512,60.767,505.387,54.154,497.231,54.154z M438.154,246.154c0,100.44-81.713,182.154-182.154,182.154    S73.846,346.594,73.846,246.154v-64h364.308V246.154z M482.462,152.615H29.538V83.692h452.923V152.615z" fill="url(#linear-gradient)"/>
		</g>
	</g>
	<g>
		<g>
			<path d="M256,211.692c-51.577,0-93.538,41.961-93.538,93.538s41.961,93.538,93.538,93.538s93.538-41.961,93.538-93.538    S307.577,211.692,256,211.692z M256,369.231c-35.29,0-64-28.71-64-64s28.71-64,64-64s64,28.71,64,64S291.29,369.231,256,369.231z" fill="url(#linear-gradient)"/>
		</g>
	</g>
	<g>
		<g>
			<path d="M256,274.708c-16.831,0-30.523,13.693-30.523,30.523s13.692,30.523,30.523,30.523s30.523-13.693,30.523-30.523    S272.831,274.708,256,274.708z M256,306.215c-0.544,0-0.985-0.442-0.985-0.985s0.441-0.985,0.985-0.985s0.985,0.442,0.985,0.985    S256.544,306.215,256,306.215z" fill="url(#linear-gradient)"/>
		</g>
	</g>
	<g>
		<g>
			<path d="M374.154,103.385h-19.692c-8.157,0-14.769,6.613-14.769,14.769s6.613,14.769,14.769,14.769h19.692    c8.157,0,14.769-6.613,14.769-14.769S382.31,103.385,374.154,103.385z" fill="url(#linear-gradient)"/>
		</g>
	</g>
	<g>
		<g>
			<path d="M433.231,103.385h-19.692c-8.157,0-14.769,6.613-14.769,14.769s6.613,14.769,14.769,14.769h19.692    c8.157,0,14.769-6.613,14.769-14.769S441.387,103.385,433.231,103.385z" fill="url(#linear-gradient)"/>
		</g>
	</g>
	<g>
	</g>
	<g>
	</g>
	<g>
	</g>
	<g>
	</g>
	<g>
	</g>
	<g>
	</g>
	<g>
	</g>
	<g>
	</g>
	<g>
	</g>
	<g>
	</g>
	<g>
	</g>
	<g>
	</g>
	<g>
	</g>
	<g>
	</g>
	<g>
	</g>
</svg>
